<svg class="svg-canvas" viewBox="0 0 800 600" width="1600" height="1200" preserveAspectRatio="none" version="1.1" xmlns="http://www.w3.org/2000/svg" xmlns:xlink="http://www.w3.org/1999/xlink">
      <!--滤镜-->
      <defs></defs>
    
      <!-- 背景 -->
      <g id="background">
          <rect x="0" y="0" fill="#ffffff" width="800" height="600"></rect>
          
        </g>
    
      <!--元素-->
      
              <g id="shape_MsPXuiSoMM" ref="shape_MsPXuiSoMM" key="shape_MsPXuiSoMM" mask="">
                <g transform="translate(3.124465532154545,166.08143644485074) rotate(0,396.87553446784545,188.01577037872357) scale(1,1)" style="opacity: 1;mix-blend-mode: undefined;" filter="">
                  <!--普通元素-->
                  <svg xmlns="http://www.w3.org/2000/svg" version="1.1" xmlns:xlink="http://www.w3.org/1999/xlink" width="793.751068935691" height="376.0315407574472" viewBox="0 0 1261.733469995692 597.7334699956921" data-ligature="true" data-parent="shape_MsPXuiSoMM"><g data-role="text" data-width="762.5427228500502" data-height="99" transform="translate(249.59537357282093, 249.366734997846)"><path d="M20.70 0L4.57 0L4.57-61.76L31.67-61.76Q34.83-61.76 38.15-61.05Q41.48-60.35 44.26-58.14Q47.05-55.94 48.75-51.49Q50.45-47.05 50.45-39.65L50.45-39.65Q50.45-32.17 48.79-27.64Q47.13-23.11 44.47-20.82Q41.81-18.54 38.69-17.75Q35.58-16.96 32.58-16.96L32.58-16.96Q31.00-16.96 29.30-17.12Q27.60-17.29 25.98-17.58Q24.35-17.87 22.98-18.16Q21.61-18.45 20.70-18.62L20.70-18.62L20.70 0ZM20.70-47.30L20.70-31.42L30.01-31.42Q31.67-31.42 32.62-32.33Q33.58-33.25 33.95-35.04Q34.33-36.82 34.33-39.48L34.33-39.48Q34.33-42.06 33.87-43.80Q33.41-45.55 32.50-46.42Q31.59-47.30 30.01-47.30L30.01-47.30L20.70-47.30Z" transform="translate(0 77) " fill="rgb(26, 66, 121)" stroke="rgb(26, 66, 121)" stroke-width="0.139" data-glyph-w="52.614959999999996" data-glyph-h="110.46648" data-glyph-ascender="83.28624" data-glyph-descender="-27.18024" data-kerning="0"></path><path d="M19.78 0L3.66 0L3.66-44.80L16.21-44.80L19.78-38.57Q21.78-41.31 24.40-43.39Q27.01-45.47 30.75-45.47L30.75-45.47Q31.42-45.47 32.33-45.38Q33.25-45.30 34.08-45.05L34.08-45.05L34.08-28.51Q32.67-28.68 31.21-28.76Q29.76-28.84 28.59-28.84L28.59-28.84Q26.60-28.84 24.94-28.47Q23.27-28.09 21.99-27.35Q20.70-26.60 19.78-25.35L19.78-25.35L19.78 0Z" transform="translate(52.614959999999996 77) " fill="rgb(26, 66, 121)" stroke="rgb(26, 66, 121)" stroke-width="0.139" data-glyph-w="35.7416" data-glyph-h="110.46648" data-glyph-ascender="83.28624" data-glyph-descender="-27.18024" data-kerning="0"></path><path d="M23.86 0.42L23.86 0.42Q17.87 0.42 13.76-0.83Q9.64-2.08 7.15-4.82Q4.65-7.56 3.57-11.93Q2.49-16.29 2.49-22.53L2.49-22.53Q2.49-29.26 3.62-33.71Q4.74-38.15 7.23-40.77Q9.73-43.39 13.84-44.47Q17.95-45.55 23.86-45.55L23.86-45.55Q29.84-45.55 33.95-44.39Q38.07-43.22 40.52-40.60Q42.97-37.99 44.10-33.54Q45.22-29.09 45.22-22.53L45.22-22.53Q45.22-16.04 44.18-11.64Q43.14-7.23 40.69-4.57Q38.24-1.91 34.12-0.75Q30.01 0.42 23.86 0.42ZM23.86-12.38L23.86-12.38Q25.43-12.38 26.43-12.68Q27.43-12.97 28.01-13.96Q28.59-14.96 28.84-17.04Q29.09-19.12 29.09-22.61L29.09-22.61Q29.09-26.10 28.84-28.14Q28.59-30.17 28.01-31.17Q27.43-32.17 26.43-32.46Q25.43-32.75 23.86-32.75L23.86-32.75Q22.28-32.75 21.28-32.46Q20.28-32.17 19.70-31.17Q19.12-30.17 18.87-28.14Q18.62-26.10 18.62-22.61L18.62-22.61Q18.62-19.12 18.87-17.04Q19.12-14.96 19.70-13.96Q20.28-12.97 21.28-12.68Q22.28-12.38 23.86-12.38Z" transform="translate(88.35656 77) " fill="rgb(26, 66, 121)" stroke="rgb(26, 66, 121)" stroke-width="0.139" data-glyph-w="47.71088" data-glyph-h="110.46648" data-glyph-ascender="83.28624" data-glyph-descender="-27.18024" data-kerning="0"></path><path d="M29.67 20.78L15.63 20.78Q11.55 20.78 8.23 19.53Q4.90 18.29 2.95 15.92Q1.00 13.55 1.00 10.22L1.00 10.22L1.00 9.31Q1.00 5.90 3.03 3.41Q5.07 0.91 8.31-0.46Q11.55-1.83 15.29-1.83L15.29-1.83L20.36 2.83Q18.95 2.83 18.04 3.24Q17.12 3.66 16.71 4.36Q16.29 5.07 16.29 5.98L16.29 5.98L16.29 6.40Q16.29 7.73 17.25 8.69Q18.20 9.64 20.36 9.64L20.36 9.64L27.68 9.64Q29.51 9.64 30.67 8.89Q31.83 8.15 31.83 6.73L31.83 6.73L31.83 5.74Q31.83 4.74 31.29 4.11Q30.75 3.49 29.84 3.16Q28.93 2.83 27.68 2.83L27.68 2.83L20.03 2.83Q11.05 2.83 6.94-0.37Q2.83-3.57 2.83-8.06L2.83-8.06Q2.83-11.47 4.74-13.96Q6.65-16.46 10.06-17.29L10.06-17.29Q7.73-18.79 6.28-20.78Q4.82-22.77 4.16-25.10Q3.49-27.43 3.49-30.01L3.49-30.01Q3.49-34.83 5.49-38.11Q7.48-41.39 11.76-43.10Q16.04-44.80 23.02-44.80L23.02-44.80L47.46-44.80L47.46-35.99L42.72-34.49Q43.31-33.66 43.68-32.54Q44.05-31.42 44.26-29.96Q44.47-28.51 44.47-26.60L44.47-26.60Q44.47-22.44 42.77-19.37Q41.06-16.29 37.49-14.59Q33.91-12.88 28.09-12.88L28.09-12.88L19.62-12.88Q18.29-12.88 17.29-12.43Q16.29-11.97 16.29-10.89L16.29-10.89Q16.29-9.81 17.29-9.48Q18.29-9.14 19.62-9.14L19.62-9.14L30.42-9.14Q35.49-9.14 39.23-7.81Q42.97-6.48 45.05-3.37Q47.13-0.25 47.13 5.07L47.13 5.07L47.13 5.82Q47.13 12.80 42.93 16.79Q38.73 20.78 29.67 20.78L29.67 20.78ZM21.69-24.85L21.69-24.85L26.27-24.85Q27.68-24.85 28.51-25.27Q29.34-25.68 29.67-26.60Q30.01-27.51 30.01-28.93L30.01-28.93Q30.01-30.34 29.67-31.21Q29.34-32.08 28.51-32.46Q27.68-32.83 26.27-32.83L26.27-32.83L21.69-32.83Q19.62-32.83 18.79-31.96Q17.95-31.09 17.95-28.93L17.95-28.93Q17.95-26.85 18.79-25.85Q19.62-24.85 21.69-24.85Z" transform="translate(136.06744 77) " fill="rgb(26, 66, 121)" stroke="rgb(26, 66, 121)" stroke-width="0.139" data-glyph-w="48.70832" data-glyph-h="110.46648" data-glyph-ascender="83.28624" data-glyph-descender="-27.18024" data-kerning="0"></path><path d="M19.78 0L3.66 0L3.66-44.80L16.21-44.80L19.78-38.57Q21.78-41.31 24.40-43.39Q27.01-45.47 30.75-45.47L30.75-45.47Q31.42-45.47 32.33-45.38Q33.25-45.30 34.08-45.05L34.08-45.05L34.08-28.51Q32.67-28.68 31.21-28.76Q29.76-28.84 28.59-28.84L28.59-28.84Q26.60-28.84 24.94-28.47Q23.27-28.09 21.99-27.35Q20.70-26.60 19.78-25.35L19.78-25.35L19.78 0Z" transform="translate(184.77576 77) " fill="rgb(26, 66, 121)" stroke="rgb(26, 66, 121)" stroke-width="0.139" data-glyph-w="35.7416" data-glyph-h="110.46648" data-glyph-ascender="83.28624" data-glyph-descender="-27.18024" data-kerning="0"></path><path d="M13.71 0.50L13.71 0.50Q8.56 0.50 5.36-2.58Q2.16-5.65 2.16-10.89L2.16-10.89L2.16-15.46Q2.16-20.45 5.82-23.77Q9.48-27.10 17.46-27.10L17.46-27.10L26.43-27.10L26.43-28.51Q26.43-30.17 25.85-31.13Q25.27-32.08 23.48-32.46Q21.69-32.83 17.87-32.83L17.87-32.83L4.82-32.83L4.82-42.06Q8.31-43.47 12.84-44.39Q17.37-45.30 23.94-45.30L23.94-45.30Q29.59-45.30 33.79-44.01Q37.99-42.72 40.27-39.36Q42.56-35.99 42.56-29.67L42.56-29.67L42.56 0L29.76 0L27.26-4.49Q26.43-3.66 25.23-2.83Q24.02-1.99 22.36-1.21Q20.70-0.42 18.54 0.04Q16.37 0.50 13.71 0.50ZM22.19-10.47L22.19-10.47Q22.61-10.47 23.11-10.56Q23.61-10.64 24.10-10.76Q24.60-10.89 25.06-11.01Q25.52-11.14 25.85-11.30Q26.18-11.47 26.43-11.55L26.43-11.55L26.43-19.62L23.02-19.12Q20.70-18.79 19.49-17.91Q18.29-17.04 18.29-15.21L18.29-15.21L18.29-13.55Q18.29-12.47 18.74-11.76Q19.20-11.05 20.07-10.76Q20.95-10.47 22.19-10.47Z" transform="translate(218.85491510001435 77) " fill="rgb(26, 66, 121)" stroke="rgb(26, 66, 121)" stroke-width="0.139" data-glyph-w="46.04848" data-glyph-h="110.46648" data-glyph-ascender="83.28624" data-glyph-descender="-27.18024" data-kerning="-1.66244489998564"></path><path d="M18.45 0.50L18.45 0.50Q13.38 0.50 9.81-1.62Q6.23-3.74 4.36-8.64Q2.49-13.55 2.49-21.86L2.49-21.86Q2.49-30.17 3.95-35.37Q5.40-40.56 9.06-43.06Q12.72-45.55 19.28-45.55L19.28-45.55Q21.94-45.55 24.56-45.05Q27.18-44.55 29.26-43.80L29.26-43.80L29.26-63.42L45.38-63.42L45.38 0L31.75 0L29.26-4.07Q27.68-2.66 25.93-1.62Q24.19-0.58 22.36-0.04Q20.53 0.50 18.45 0.50ZM24.35-12.38L24.35-12.38Q26.02-12.38 27.30-12.93Q28.59-13.47 29.26-14.05L29.26-14.05L29.26-32.17Q28.51-32.58 27.22-33.08Q25.93-33.58 24.77-33.58L24.77-33.58Q22.53-33.58 21.15-32.83Q19.78-32.08 19.20-29.76Q18.62-27.43 18.62-22.69L18.62-22.69Q18.62-18.12 19.16-15.92Q19.70-13.71 20.99-13.05Q22.28-12.38 24.35-12.38Z" transform="translate(264.90339510001434 77) " fill="rgb(26, 66, 121)" stroke="rgb(26, 66, 121)" stroke-width="0.139" data-glyph-w="48.87456" data-glyph-h="110.46648" data-glyph-ascender="83.28624" data-glyph-descender="-27.18024" data-kerning="0"></path><path d="M23.69 0.42L23.69 0.42Q16.04 0.42 11.39-1.50Q6.73-3.41 4.61-8.35Q2.49-13.30 2.49-22.28L2.49-22.28Q2.49-31.50 4.41-36.53Q6.32-41.56 10.76-43.55Q15.21-45.55 22.94-45.55L22.94-45.55Q30.09-45.55 34.25-44.22Q38.40-42.89 40.19-39.44Q41.98-35.99 41.98-29.67L41.98-29.67Q41.98-24.77 40.06-21.99Q38.15-19.20 34.66-18.04Q31.17-16.87 26.43-16.87L26.43-16.87L18.45-16.87Q18.70-14.88 19.45-13.67Q20.20-12.47 22.19-11.97Q24.19-11.47 28.09-11.47L28.09-11.47L40.31-11.47L40.31-2.08Q37.40-1.25 33.37-0.42Q29.34 0.42 23.69 0.42ZM18.29-26.27L18.29-26.27L24.69-26.27Q26.35-26.27 27.10-27.01Q27.85-27.76 27.85-29.59L27.85-29.59Q27.85-31.17 27.35-32.17Q26.85-33.16 25.77-33.62Q24.69-34.08 22.94-34.08L22.94-34.08Q21.36-34.08 20.32-33.41Q19.28-32.75 18.79-31.05Q18.29-29.34 18.29-26.27Z" transform="translate(313.7779551000143 77) " fill="rgb(26, 66, 121)" stroke="rgb(26, 66, 121)" stroke-width="0.139" data-glyph-w="44.4692" data-glyph-h="110.46648" data-glyph-ascender="83.28624" data-glyph-descender="-27.18024" data-kerning="0"></path><path d="M0,0Z" transform="translate(358.2471551000143 77) " fill="rgb(26, 66, 121)" stroke="rgb(26, 66, 121)" stroke-width="0.139" data-glyph-w="20.78" data-glyph-h="110.46648" data-glyph-ascender="83.28624" data-glyph-descender="-27.18024" data-kerning="0"></path><path d="M33.00 0L16.87 0L16.87-47.30L1.33-47.30L1.33-61.76L48.54-61.76L48.54-47.30L33.00-47.30L33.00 0Z" transform="translate(379.0271551000143 77) " fill="rgb(26, 66, 121)" stroke="rgb(26, 66, 121)" stroke-width="0.139" data-glyph-w="49.872" data-glyph-h="110.46648" data-glyph-ascender="83.28624" data-glyph-descender="-27.18024" data-kerning="0"></path><path d="M23.69 0.42L23.69 0.42Q16.04 0.42 11.39-1.50Q6.73-3.41 4.61-8.35Q2.49-13.30 2.49-22.28L2.49-22.28Q2.49-31.50 4.41-36.53Q6.32-41.56 10.76-43.55Q15.21-45.55 22.94-45.55L22.94-45.55Q30.09-45.55 34.25-44.22Q38.40-42.89 40.19-39.44Q41.98-35.99 41.98-29.67L41.98-29.67Q41.98-24.77 40.06-21.99Q38.15-19.20 34.66-18.04Q31.17-16.87 26.43-16.87L26.43-16.87L18.45-16.87Q18.70-14.88 19.45-13.67Q20.20-12.47 22.19-11.97Q24.19-11.47 28.09-11.47L28.09-11.47L40.31-11.47L40.31-2.08Q37.40-1.25 33.37-0.42Q29.34 0.42 23.69 0.42ZM18.29-26.27L18.29-26.27L24.69-26.27Q26.35-26.27 27.10-27.01Q27.85-27.76 27.85-29.59L27.85-29.59Q27.85-31.17 27.35-32.17Q26.85-33.16 25.77-33.62Q24.69-34.08 22.94-34.08L22.94-34.08Q21.36-34.08 20.32-33.41Q19.28-32.75 18.79-31.05Q18.29-29.34 18.29-26.27Z" transform="translate(424.7430428500502 77) " fill="rgb(26, 66, 121)" stroke="rgb(26, 66, 121)" stroke-width="0.139" data-glyph-w="44.4692" data-glyph-h="110.46648" data-glyph-ascender="83.28624" data-glyph-descender="-27.18024" data-kerning="-4.1561122499641"></path><path d="M21.86 0.50L21.86 0.50Q17.62 0.50 14.05-0.62Q10.47-1.75 7.90-4.32Q5.32-6.90 3.91-11.26Q2.49-15.63 2.49-22.11L2.49-22.11Q2.49-28.93 3.78-33.46Q5.07-37.99 7.56-40.65Q10.06-43.31 13.80-44.43Q17.54-45.55 22.36-45.55L22.36-45.55Q26.85-45.55 30.46-44.97Q34.08-44.39 38.48-42.97L38.48-42.97L38.48-33.75L27.60-33.75Q24.02-33.75 22.07-32.79Q20.12-31.83 19.37-29.38Q18.62-26.93 18.62-22.36L18.62-22.36Q18.62-17.70 19.33-15.38Q20.03-13.05 21.99-12.30Q23.94-11.55 27.76-11.55L27.76-11.55L39.07-11.55L39.07-2.49Q36.99-1.66 34.04-0.96Q31.09-0.25 27.93 0.12Q24.77 0.50 21.86 0.50Z" transform="translate(469.2122428500502 77) " fill="rgb(26, 66, 121)" stroke="rgb(26, 66, 121)" stroke-width="0.139" data-glyph-w="40.7288" data-glyph-h="110.46648" data-glyph-ascender="83.28624" data-glyph-descender="-27.18024" data-kerning="0"></path><path d="M19.78 0L3.66 0L3.66-63.34L19.78-63.34L19.78-40.48Q21.69-42.31 25.31-43.93Q28.93-45.55 32.58-45.55L32.58-45.55Q37.90-45.55 40.90-43.55Q43.89-41.56 45.13-37.86Q46.38-34.16 46.38-29.09L46.38-29.09L46.38 0L30.26 0L30.26-26.93Q30.26-28.59 29.63-29.51Q29.01-30.42 28.01-30.75Q27.01-31.09 25.85-31.09L25.85-31.09Q24.77-31.09 23.61-30.71Q22.44-30.34 21.44-29.76Q20.45-29.18 19.78-28.51L19.78-28.51L19.78 0Z" transform="translate(509.94104285005017 77) " fill="rgb(26, 66, 121)" stroke="rgb(26, 66, 121)" stroke-width="0.139" data-glyph-w="49.872" data-glyph-h="110.46648" data-glyph-ascender="83.28624" data-glyph-descender="-27.18024" data-kerning="0"></path><path d="M0,0Z" transform="translate(559.8130428500501 77) " fill="rgb(26, 66, 121)" stroke="rgb(26, 66, 121)" stroke-width="0.139" data-glyph-w="20.78" data-glyph-h="110.46648" data-glyph-ascender="83.28624" data-glyph-descender="-27.18024" data-kerning="0"></path><path d="M42.97 0L20.61 0Q15.04 0 11.47-1.66Q7.90-3.32 6.23-6.90Q4.57-10.47 4.57-16.04L4.57-16.04L4.57-61.76L20.70-61.76L20.70-18.79Q20.70-17.37 21.15-16.37Q21.61-15.38 22.61-14.92Q23.61-14.46 25.02-14.46L25.02-14.46L42.97-14.46L42.97 0Z" transform="translate(580.5930428500501 77) " fill="rgb(26, 66, 121)" stroke="rgb(26, 66, 121)" stroke-width="0.139" data-glyph-w="44.63544" data-glyph-h="110.46648" data-glyph-ascender="83.28624" data-glyph-descender="-27.18024" data-kerning="0"></path><path d="M13.71 0.50L13.71 0.50Q8.56 0.50 5.36-2.58Q2.16-5.65 2.16-10.89L2.16-10.89L2.16-15.46Q2.16-20.45 5.82-23.77Q9.48-27.10 17.46-27.10L17.46-27.10L26.43-27.10L26.43-28.51Q26.43-30.17 25.85-31.13Q25.27-32.08 23.48-32.46Q21.69-32.83 17.87-32.83L17.87-32.83L4.82-32.83L4.82-42.06Q8.31-43.47 12.84-44.39Q17.37-45.30 23.94-45.30L23.94-45.30Q29.59-45.30 33.79-44.01Q37.99-42.72 40.27-39.36Q42.56-35.99 42.56-29.67L42.56-29.67L42.56 0L29.76 0L27.26-4.49Q26.43-3.66 25.23-2.83Q24.02-1.99 22.36-1.21Q20.70-0.42 18.54 0.04Q16.37 0.50 13.71 0.50ZM22.19-10.47L22.19-10.47Q22.61-10.47 23.11-10.56Q23.61-10.64 24.10-10.76Q24.60-10.89 25.06-11.01Q25.52-11.14 25.85-11.30Q26.18-11.47 26.43-11.55L26.43-11.55L26.43-19.62L23.02-19.12Q20.70-18.79 19.49-17.91Q18.29-17.04 18.29-15.21L18.29-15.21L18.29-13.55Q18.29-12.47 18.74-11.76Q19.20-11.05 20.07-10.76Q20.95-10.47 22.19-10.47Z" transform="translate(625.2284828500501 77) " fill="rgb(26, 66, 121)" stroke="rgb(26, 66, 121)" stroke-width="0.139" data-glyph-w="46.04848" data-glyph-h="110.46648" data-glyph-ascender="83.28624" data-glyph-descender="-27.18024" data-kerning="0"></path><path d="M31.59 0.50L31.59 0.50Q28.76 0.50 26.72-0.08Q24.69-0.66 23.07-1.70Q21.44-2.74 19.78-4.07L19.78-4.07L17.29 0L3.66 0L3.66-63.42L19.78-63.42L19.78-42.31Q22.03-43.47 24.98-44.51Q27.93-45.55 30.75-45.55L30.75-45.55Q36.74-45.55 40.19-43.06Q43.64-40.56 45.09-35.37Q46.55-30.17 46.55-21.86L46.55-21.86Q46.55-13.96 44.88-9.02Q43.22-4.07 39.90-1.79Q36.57 0.50 31.59 0.50ZM25.27-12.55L25.27-12.55Q26.52-12.55 27.68-13.22Q28.84-13.88 29.63-16.04Q30.42-18.20 30.42-22.69L30.42-22.69Q30.42-27.43 29.63-29.51Q28.84-31.59 27.64-32.13Q26.43-32.67 25.27-32.67L25.27-32.67Q23.69-32.67 22.07-32.08Q20.45-31.50 19.78-31.00L19.78-31.00L19.78-13.80Q20.70-13.30 22.03-12.93Q23.36-12.55 25.27-12.55Z" transform="translate(671.2769628500502 77) " fill="rgb(26, 66, 121)" stroke="rgb(26, 66, 121)" stroke-width="0.139" data-glyph-w="49.0408" data-glyph-h="110.46648" data-glyph-ascender="83.28624" data-glyph-descender="-27.18024" data-kerning="0"></path><path d="M20.53 0.50L20.53 0.50Q18.12 0.50 15.71 0.33Q13.30 0.17 11.01-0.12Q8.73-0.42 6.73-0.91Q4.74-1.41 3.16-2.08L3.16-2.08L3.16-11.47L23.94-11.47Q25.02-11.47 25.56-11.68Q26.10-11.89 26.27-12.26Q26.43-12.63 26.43-13.13L26.43-13.13L26.43-14.21Q26.43-15.04 25.89-15.50Q25.35-15.96 23.36-15.96L23.36-15.96L15.88-15.96Q12.14-15.96 9.02-17.21Q5.90-18.45 4.03-21.28Q2.16-24.10 2.16-28.84L2.16-28.84L2.16-31.59Q2.16-35.91 3.82-38.94Q5.49-41.98 9.73-43.60Q13.96-45.22 21.61-45.22L21.61-45.22Q24.69-45.22 27.85-44.84Q31.00-44.47 33.71-43.89Q36.41-43.31 37.90-42.64L37.90-42.64L37.90-33.25L18.20-33.25Q16.96-33.25 16.37-32.87Q15.79-32.50 15.79-31.59L15.79-31.59L15.79-30.51Q15.79-29.84 16.08-29.47Q16.37-29.09 17.12-28.93Q17.87-28.76 19.12-28.76L19.12-28.76L26.85-28.76Q34.16-28.76 37.11-25.43Q40.06-22.11 40.06-16.46L40.06-16.46L40.06-11.89Q40.06-7.40 37.90-4.65Q35.74-1.91 31.42-0.71Q27.10 0.50 20.53 0.50Z" transform="translate(720.3177628500501 77) " fill="rgb(26, 66, 121)" stroke="rgb(26, 66, 121)" stroke-width="0.139" data-glyph-w="42.22496" data-glyph-h="110.46648" data-glyph-ascender="83.28624" data-glyph-descender="-27.18024" data-kerning="0"></path></g></svg>
                </g>
              </g>
              <g id="shape_uZTHEzdmhD" ref="shape_uZTHEzdmhD" key="shape_uZTHEzdmhD" mask="">
                <g transform="translate(354.62171140252894,221.6725672429714) rotate(0,45.37828859747104,40.40403979568021) scale(1,1)" style="opacity: 1;mix-blend-mode: undefined;" filter="">
                  <!--普通元素-->
                  <svg version="1.1" id="Pp4fk6lYPA" xmlns="http://www.w3.org/2000/svg" xmlns:xlink="http://www.w3.org/1999/xlink" x="0px" y="0px" viewBox="0 0 96.7 86.1" style="enable-background:new 0 0 96.7 86.1;" xml:space="preserve" width="90.75657719494208" height="80.80807959136042" class="style-removed" preserveAspectRatio="none" data-parent="shape_uZTHEzdmhD">

<path d="M96.7,49.5c0,14.5-6.2,27.5-16.1,36.6C34.9,77.6,10.2,49.4,0,34.3C6.4,14.4,25.1,0,47.1,0
	C74.5,0,96.7,22.2,96.7,49.5z" fill="#1a4279" stroke-width="0"></path>
</svg>
                </g>
              </g>
              <g id="shape_7jWDwOPMW1" ref="shape_7jWDwOPMW1" key="shape_7jWDwOPMW1" mask="">
                <g transform="translate(128.62108642528753,-25.39694242819192) rotate(0,271.60424099488546,296.45352015609126) scale(1,1)" style="opacity: 1;mix-blend-mode: undefined;" filter="">
                  <!--普通元素-->
                  <svg xmlns="http://www.w3.org/2000/svg" version="1.1" xmlns:xlink="http://www.w3.org/1999/xlink" width="543.2084819897709" height="592.9070403121826" viewBox="0 0 863.4751494962401 942.4751494962402" data-ligature="true" data-parent="shape_7jWDwOPMW1"><g data-role="text" data-width="77.10599" data-height="157" transform="translate(393.18457974812003, 392.73757474812004)"><path d="M3.80 1.18L4.84-9.03Q9.95-9.95 11.78-12.24Q13.61-14.53 13.61-20.03L13.61-20.03L13.75-67.55Q13.75-71.61 12.89-73.11Q12.04-74.62 9.82-74.62L9.82-74.62Q8.38-74.62 7.07-74.49Q5.76-74.36 5.37-74.36L5.37-74.36L4.32-75.54L5.50-84.44L22.91-84.31Q28.54-84.31 35.15-84.57Q41.76-84.83 44.38-84.96L44.38-84.96Q62.84-84.96 70.23-77.37Q77.63-69.78 77.63-58.91L77.63-58.91Q77.63-51.05 73.18-44.05Q68.73-37.05 61.40-32.86Q54.07-28.67 45.69-28.67L45.69-28.67L34.56-28.67L34.43-20.42Q34.43-15.97 34.89-13.75Q35.35-11.52 36.72-10.67Q38.09-9.82 40.71-9.82L40.71-9.82Q42.41-9.82 43.92-9.95Q45.43-10.08 45.95-10.08L45.95-10.08L46.47-9.16L45.16 0.52Q42.94 0.39 37.31 0.20Q31.68 0 26.71 0L26.71 0Q22.39 0 14.47 0.46Q6.55 0.92 3.80 1.18L3.80 1.18ZM45.29-40.71Q55.51-43.46 55.51-57.34L55.51-57.34Q55.51-64.80 51.45-68.20Q47.39-71.61 38.62-71.61L38.62-71.61Q36.92-71.61 36.52-71.22Q36.13-70.82 36.00-69.12L36.00-69.12Q35.21-57.47 34.82-42.15L34.82-42.15L45.29-40.71Z" transform="translate(0 122) " fill="#FFFFFF" stroke="#FFFFFF" stroke-width="0.218" data-glyph-w="77.10599" data-glyph-h="178.16851" data-glyph-ascender="133.00456" data-glyph-descender="-45.16395" data-kerning="0"></path></g></svg>
                </g>
              </g>
              <g id="shape_JOoB6YusNj" ref="shape_JOoB6YusNj" key="shape_JOoB6YusNj" mask="">
                <g transform="translate(331.29264272077796,214.76255726554757) rotate(0,68.70735727921888,49.855060991663436) scale(1,1)" style="opacity: 1;mix-blend-mode: undefined;" filter="">
                  <!--普通元素-->
                  <svg version="1.1" id="O8wpwe5xkm" xmlns="http://www.w3.org/2000/svg" xmlns:xlink="http://www.w3.org/1999/xlink" x="0px" y="0px" viewBox="0 0 126.1 91.5" style="enable-background:new 0 0 126.1 91.5;" xml:space="preserve" width="137.41471455843777" height="99.71012198332687" class="style-removed" preserveAspectRatio="none" data-parent="shape_JOoB6YusNj">

<path d="M116.9,54.6H115c7.9,10.1,11,19.5,7.1,25.8c-7.5,12.2-38.3,7.9-68.8-9.8C22.8,52.9,4.2,28.6,11.7,16.4
	c1.7-2.8,4.7-4.7,8.7-5.8c1.1,2.9,3.9,4.9,7.2,4.9c4.3,0,7.8-3.5,7.8-7.8c0-4.3-3.5-7.8-7.8-7.8c-3,0-5.5,1.7-6.8,4.1
	C11.8,4.3,5,6.8,1.9,11.9c-6,9.8,2.7,26.3,20.5,42C24,75,41.6,91.5,63,91.5c6.8,0,13.1-1.6,18.8-4.5c20.3,5.9,36.9,4.8,42.4-4.2
	C128.5,75.9,125.3,65.6,116.9,54.6z" fill="#1a4279" stroke-width="0"></path>
</svg>
                </g>
              </g>
    </svg>